--40003LOG 11:56:37:504400900 Waiting for file /home/seluser/videos/vid_chrome_or_firefox_40003* to be created...
Won't start video recording due to VIDEO env var false
ffmpeg version 2.8.17-0ubuntu0.1 Copyright (c) 2000-2020 the FFmpeg developers
  built with gcc 5.4.0 (Ubuntu 5.4.0-6ubuntu1~16.04.12) 20160609
  configuration: --prefix=/usr --extra-version=0ubuntu0.1 --build-suffix=-ffmpeg --toolchain=hardened --libdir=/usr/lib/x86_64-linux-gnu --incdir=/usr/include/x86_64-linux-gnu --cc=cc --cxx=g++ --enable-gpl --enable-shared --disable-stripping --disable-decoder=libopenjpeg --disable-decoder=libschroedinger --enable-avresample --enable-avisynth --enable-gnutls --enable-ladspa --enable-libass --enable-libbluray --enable-libbs2b --enable-libcaca --enable-libcdio --enable-libflite --enable-libfontconfig --enable-libfreetype --enable-libfribidi --enable-libgme --enable-libgsm --enable-libmodplug --enable-libmp3lame --enable-libopenjpeg --enable-libopus --enable-libpulse --enable-librtmp --enable-libschroedinger --enable-libshine --enable-libsnappy --enable-libsoxr --enable-libspeex --enable-libssh --enable-libtheora --enable-libtwolame --enable-libvorbis --enable-libvpx --enable-libwavpack --enable-libwebp --enable-libx265 --enable-libxvid --enable-libzvbi --enable-openal --enable-opengl --enable-x11grab --enable-libdc1394 --enable-libiec61883 --enable-libzmq --enable-frei0r --enable-libx264 --enable-libopencv
  libavutil      54. 31.100 / 54. 31.100
  libavcodec     56. 60.100 / 56. 60.100
  libavformat    56. 40.101 / 56. 40.101
  libavdevice    56.  4.100 / 56.  4.100
  libavfilter     5. 40.101 /  5. 40.101
  libavresample   2.  1.  0 /  2.  1.  0
  libswscale      3.  1.101 /  3.  1.101
  libswresample   1.  2.101 /  1.  2.101
  libpostproc    53.  3.100 / 53.  3.100
Input #0, x11grab, from ':53.0':
  Duration: N/A, start: 1603878998.418450, bitrate: N/A
    Stream #0:0: Video: rawvideo (BGR[0] / 0x524742), bgr0, 1366x768, 10 fps, 10 tbr, 1000k tbn, 10 tbc
[libx264 @ 0xc93320] using cpu capabilities: MMX2 SSE2Fast SSSE3 SSE4.2 AVX FMA3 AVX2 LZCNT BMI2
[libx264 @ 0xc93320] profile Constrained Baseline, level 3.2
[libx264 @ 0xc93320] 264 - core 148 r2643 5c65704 - H.264/MPEG-4 AVC codec - Copyleft 2003-2015 - http://www.videolan.org/x264.html - options: cabac=0 ref=1 deblock=0:0:0 analyse=0:0 me=dia subme=0 psy=1 psy_rd=1.00:0.00 mixed_ref=0 me_range=16 chroma_me=1 trellis=0 8x8dct=0 cqm=0 deadzone=21,11 fast_pskip=1 chroma_qp_offset=0 threads=3 lookahead_threads=1 sliced_threads=0 nr=0 decimate=1 interlaced=0 bluray_compat=0 constrained_intra=0 bframes=0 weightp=0 keyint=250 keyint_min=10 scenecut=0 intra_refresh=0 rc=crf mbtree=0 crf=23.0 qcomp=0.60 qpmin=0 qpmax=69 qpstep=4 ip_ratio=1.40 aq=0
Output #0, matroska, to '/home/seluser/videos/vid_chrome_or_firefox_40003.mkv':
  Metadata:
    encoder         : Lavf56.40.101
    Stream #0:0: Video: h264 (libx264) (H264 / 0x34363248), yuv420p, 1366x768, q=-1--1, 10 fps, 1k tbn, 10 tbc
    Metadata:
      encoder         : Lavc56.60.100 libx264
Stream mapping:
  Stream #0:0 -> #0:0 (rawvideo (native) -> h264 (libx264))
Press [q] to stop, [?] for help
[swscaler @ 0xc9eca0] Warning: data is not aligned! This can lead to a speedloss
frame=    4 fps=0.0 q=0.0 size=       1kB time=00:00:00.00 bitrate=N/A    
frame=    9 fps=7.4 q=10.0 size=      39kB time=00:00:00.50 bitrate= 647.1kbits/s    
frame=   18 fps= 10 q=9.0 size=      44kB time=00:00:01.40 bitrate= 258.2kbits/s    
frame=   23 fps=9.9 q=9.0 size=      44kB time=00:00:01.90 bitrate= 190.6kbits/s    
frame=   34 fps= 12 q=9.0 size=      44kB time=00:00:03.00 bitrate= 121.5kbits/s    
frame=   40 fps= 11 q=9.0 size=      45kB time=00:00:03.60 bitrate= 101.5kbits/s    
frame=   45 fps= 11 q=9.0 size=      46kB time=00:00:04.10 bitrate=  92.6kbits/s    
frame=   49 fps= 11 q=9.0 size=      46kB time=00:00:04.50 bitrate=  84.5kbits/s    
frame=   55 fps= 11 q=9.0 size=      47kB time=00:00:05.10 bitrate=  74.9kbits/s    
frame=   61 fps= 11 q=9.0 size=      47kB time=00:00:05.70 bitrate=  67.2kbits/s    
frame=   67 fps= 10 q=9.0 size=      47kB time=00:00:06.30 bitrate=  61.1kbits/s    
frame=   72 fps= 10 q=9.0 size=      47kB time=00:00:06.80 bitrate=  56.8kbits/s    
frame=   78 fps= 10 q=9.0 size=      47kB time=00:00:07.40 bitrate=  52.3kbits/s    
frame=   85 fps= 10 q=9.0 size=      47kB time=00:00:08.10 bitrate=  48.0kbits/s    
frame=   89 fps= 10 q=9.0 size=      48kB time=00:00:08.50 bitrate=  45.8kbits/s    
frame=   95 fps= 10 q=9.0 size=      48kB time=00:00:09.10 bitrate=  43.0kbits/s    
frame=  101 fps= 10 q=9.0 size=      48kB time=00:00:09.70 bitrate=  40.5kbits/s    
frame=  110 fps= 10 q=9.0 size=      48kB time=00:00:10.60 bitrate=  37.3kbits/s    
frame=  116 fps= 10 q=9.0 size=      48kB time=00:00:11.20 bitrate=  35.4kbits/s    
frame=  121 fps= 10 q=9.0 size=      48kB time=00:00:11.70 bitrate=  33.9kbits/s    
frame=  126 fps= 10 q=9.0 size=      49kB time=00:00:12.20 bitrate=  32.7kbits/s    
frame=  133 fps= 10 q=9.0 size=      49kB time=00:00:12.90 bitrate=  31.1kbits/s    
frame=  138 fps= 10 q=9.0 size=      49kB time=00:00:13.40 bitrate=  30.0kbits/s    
frame=  143 fps= 10 q=9.0 size=      49kB time=00:00:13.90 bitrate=  29.0kbits/s    
frame=  146 fps= 10 q=9.0 size=      49kB time=00:00:14.20 bitrate=  28.4kbits/s    
frame=  150 fps= 10 q=9.0 size=      49kB time=00:00:14.60 bitrate=  27.7kbits/s    
frame=  158 fps= 10 q=9.0 size=      50kB time=00:00:15.40 bitrate=  26.4kbits/s    
frame=  162 fps= 10 q=9.0 size=      50kB time=00:00:15.80 bitrate=  25.8kbits/s    
frame=  166 fps= 10 q=9.0 size=      50kB time=00:00:16.20 bitrate=  25.2kbits/s    
frame=  169 fps=9.8 q=9.0 size=      50kB time=00:00:16.50 bitrate=  24.8kbits/s    
frame=  174 fps=9.8 q=9.0 size=      50kB time=00:00:17.00 bitrate=  24.2kbits/s    
frame=  179 fps=9.8 q=9.0 size=      50kB time=00:00:17.50 bitrate=  23.5kbits/s    
frame=  182 fps=9.7 q=9.0 size=      50kB time=00:00:17.80 bitrate=  23.2kbits/s    
frame=  183 fps=9.4 q=9.0 size=      50kB time=00:00:17.90 bitrate=  23.0kbits/s    
frame=  185 fps=9.2 q=9.0 size=      50kB time=00:00:18.10 bitrate=  22.8kbits/s    
frame=  188 fps=9.1 q=9.0 size=      51kB time=00:00:18.40 bitrate=  22.5kbits/s    
frame=  196 fps=9.2 q=9.0 size=      51kB time=00:00:19.20 bitrate=  21.7kbits/s    
frame=  199 fps=9.1 q=9.0 size=      51kB time=00:00:19.50 bitrate=  21.4kbits/s    
frame=  201 fps=8.9 q=9.0 size=      51kB time=00:00:19.70 bitrate=  21.3kbits/s    
frame=  205 fps=8.9 q=9.0 size=      51kB time=00:00:20.10 bitrate=  20.9kbits/s    
frame=  210 fps=8.9 q=9.0 size=      51kB time=00:00:20.60 bitrate=  20.5kbits/s    
frame=  213 fps=8.8 q=9.0 size=      52kB time=00:00:20.90 bitrate=  20.2kbits/s    
frame=  217 fps=8.6 q=9.0 size=      52kB time=00:00:21.30 bitrate=  19.9kbits/s    
frame=  220 fps=8.5 q=9.0 size=      52kB time=00:00:21.60 bitrate=  19.7kbits/s    
frame=  223 fps=8.4 q=9.0 size=      52kB time=00:00:21.90 bitrate=  19.5kbits/s    
frame=  226 fps=8.4 q=9.0 size=      52kB time=00:00:22.20 bitrate=  19.3kbits/s    
frame=  228 fps=8.3 q=9.0 size=      52kB time=00:00:22.40 bitrate=  19.1kbits/s    
frame=  231 fps=8.2 q=9.0 size=      52kB time=00:00:22.70 bitrate=  18.9kbits/s    
frame=  233 fps=8.1 q=9.0 size=      52kB time=00:00:22.90 bitrate=  18.7kbits/s    
frame=  236 fps=8.1 q=9.0 size=      53kB time=00:00:23.20 bitrate=  18.6kbits/s    
frame=  240 fps=8.0 q=9.0 size=      53kB time=00:00:23.60 bitrate=  18.3kbits/s    
frame=  242 fps=7.8 q=9.0 size=      53kB time=00:00:23.80 bitrate=  18.2kbits/s    
frame=  244 fps=7.8 q=9.0 size=      53kB time=00:00:24.00 bitrate=  18.0kbits/s    
frame=  247 fps=7.7 q=9.0 size=      53kB time=00:00:24.30 bitrate=  17.9kbits/s    
frame=  252 fps=7.7 q=9.0 size=      53kB time=00:00:24.80 bitrate=  17.6kbits/s    
frame=  255 fps=7.7 q=13.0 size=      93kB time=00:00:25.10 bitrate=  30.4kbits/s    
frame=  259 fps=7.7 q=10.0 size=      93kB time=00:00:25.50 bitrate=  29.9kbits/s    
frame=  262 fps=7.6 q=9.0 size=      93kB time=00:00:25.80 bitrate=  29.6kbits/s    
frame=  267 fps=7.7 q=9.0 size=      93kB time=00:00:26.30 bitrate=  29.1kbits/s    
frame=  270 fps=7.6 q=9.0 size=      93kB time=00:00:26.60 bitrate=  28.8kbits/s    
frame=  273 fps=7.6 q=9.0 size=      94kB time=00:00:26.90 bitrate=  28.5kbits/s    
frame=  276 fps=7.6 q=9.0 size=      94kB time=00:00:27.20 bitrate=  28.2kbits/s    
frame=  280 fps=7.6 q=9.0 size=      94kB time=00:00:27.60 bitrate=  27.9kbits/s    
frame=  285 fps=7.6 q=9.0 size=      94kB time=00:00:28.10 bitrate=  27.4kbits/s    
frame=  287 fps=7.5 q=9.0 size=      94kB time=00:00:28.30 bitrate=  27.2kbits/s    
frame=  289 fps=7.4 q=9.0 size=      94kB time=00:00:28.50 bitrate=  27.1kbits/s    
frame=  291 fps=7.2 q=9.0 size=      94kB time=00:00:28.70 bitrate=  26.9kbits/s    
frame=  293 fps=7.2 q=9.0 size=      94kB time=00:00:28.90 bitrate=  26.7kbits/s    
frame=  295 fps=7.1 q=9.0 size=      94kB time=00:00:29.10 bitrate=  26.6kbits/s    
frame=  300 fps=7.1 q=9.0 size=      95kB time=00:00:29.60 bitrate=  26.2kbits/s    
frame=  303 fps=7.1 q=9.0 size=      95kB time=00:00:29.90 bitrate=  26.0kbits/s    
frame=  306 fps=7.0 q=9.0 size=      95kB time=00:00:30.20 bitrate=  25.8kbits/s    
frame=  308 fps=7.0 q=9.0 size=      95kB time=00:00:30.40 bitrate=  25.6kbits/s    
frame=  311 fps=7.0 q=9.0 size=      95kB time=00:00:30.70 bitrate=  25.4kbits/s    
frame=  316 fps=7.0 q=9.0 size=      95kB time=00:00:31.20 bitrate=  25.1kbits/s    
frame=  319 fps=7.0 q=9.0 size=      95kB time=00:00:31.50 bitrate=  24.8kbits/s    
frame=  322 fps=6.9 q=9.0 size=      96kB time=00:00:31.80 bitrate=  24.6kbits/s    
frame=  325 fps=6.9 q=9.0 size=      96kB time=00:00:32.10 bitrate=  24.4kbits/s    
frame=  329 fps=6.9 q=9.0 size=      96kB time=00:00:32.50 bitrate=  24.2kbits/s    
frame=  332 fps=6.9 q=9.0 size=      96kB time=00:00:32.80 bitrate=  24.0kbits/s    
frame=  334 fps=6.9 q=9.0 size=      96kB time=00:00:33.00 bitrate=  23.8kbits/s    
frame=  336 fps=6.8 q=9.0 size=      96kB time=00:00:33.20 bitrate=  23.7kbits/s    
frame=  338 fps=6.7 q=9.0 size=      96kB time=00:00:33.40 bitrate=  23.6kbits/s    
frame=  341 fps=6.7 q=9.0 size=      96kB time=00:00:33.70 bitrate=  23.4kbits/s    
frame=  345 fps=6.7 q=9.0 size=      97kB time=00:00:34.10 bitrate=  23.2kbits/s    
frame=  349 fps=6.7 q=9.0 size=      97kB time=00:00:34.50 bitrate=  23.0kbits/s    
frame=  351 fps=6.6 q=9.0 size=      97kB time=00:00:34.70 bitrate=  22.9kbits/s    
frame=  353 fps=6.6 q=9.0 size=      97kB time=00:00:34.90 bitrate=  22.7kbits/s    
frame=  356 fps=6.5 q=9.0 size=      97kB time=00:00:35.20 bitrate=  22.6kbits/s    
frame=  357 fps=6.5 q=9.0 size=      97kB time=00:00:35.30 bitrate=  22.5kbits/s    
frame=  358 fps=6.5 q=9.0 size=      97kB time=00:00:35.40 bitrate=  22.5kbits/s    
frame=  360 fps=6.4 q=9.0 size=      97kB time=00:00:35.60 bitrate=  22.4kbits/s    
frame=  361 fps=6.3 q=9.0 size=      97kB time=00:00:35.70 bitrate=  22.3kbits/s    
frame=  362 fps=6.2 q=9.0 size=      97kB time=00:00:35.80 bitrate=  22.3kbits/s    
frame=  363 fps=6.2 q=9.0 size=      97kB time=00:00:35.90 bitrate=  22.2kbits/s    
frame=  364 fps=6.1 q=9.0 size=      98kB time=00:00:36.00 bitrate=  22.2kbits/s    
frame=  365 fps=6.1 q=9.0 size=      98kB time=00:00:36.10 bitrate=  22.1kbits/s    
frame=  366 fps=6.0 q=9.0 size=      98kB time=00:00:36.20 bitrate=  22.1kbits/s    
frame=  368 fps=6.0 q=9.0 size=      98kB time=00:00:36.40 bitrate=  22.0kbits/s    
frame=  370 fps=6.0 q=9.0 size=     100kB time=00:00:36.60 bitrate=  22.3kbits/s    
frame=  372 fps=5.9 q=9.0 size=     100kB time=00:00:36.80 bitrate=  22.2kbits/s    
frame=  376 fps=5.9 q=9.0 size=     100kB time=00:00:37.20 bitrate=  22.0kbits/s    
frame=  377 fps=5.9 q=9.0 size=     100kB time=00:00:37.30 bitrate=  22.0kbits/s    
frame=  378 fps=5.8 q=9.0 size=     100kB time=00:00:37.40 bitrate=  21.9kbits/s    
frame=  379 fps=5.8 q=9.0 size=     100kB time=00:00:37.50 bitrate=  21.8kbits/s    
frame=  380 fps=5.8 q=9.0 size=     100kB time=00:00:37.60 bitrate=  21.8kbits/s    
frame=  382 fps=5.7 q=9.0 size=     100kB time=00:00:37.80 bitrate=  21.7kbits/s    
frame=  384 fps=5.6 q=9.0 size=     100kB time=00:00:38.00 bitrate=  21.6kbits/s    
frame=  386 fps=5.6 q=9.0 size=     101kB time=00:00:38.20 bitrate=  21.6kbits/s    
frame=  387 fps=5.5 q=9.0 size=     101kB time=00:00:38.30 bitrate=  21.5kbits/s    
frame=  388 fps=5.5 q=9.0 size=     101kB time=00:00:38.40 bitrate=  21.5kbits/s    
frame=  389 fps=5.4 q=9.0 size=     101kB time=00:00:38.50 bitrate=  21.4kbits/s    
frame=  391 fps=5.4 q=9.0 size=     102kB time=00:00:38.70 bitrate=  21.7kbits/s    
frame=  392 fps=5.3 q=9.0 size=     103kB time=00:00:38.80 bitrate=  21.7kbits/s    
frame=  394 fps=5.3 q=9.0 size=     103kB time=00:00:39.00 bitrate=  21.6kbits/s    
frame=  395 fps=5.3 q=9.0 size=     103kB time=00:00:39.10 bitrate=  21.6kbits/s    
frame=  397 fps=5.2 q=9.0 size=     103kB time=00:00:39.30 bitrate=  21.5kbits/s    
frame=  399 fps=5.2 q=9.0 size=     103kB time=00:00:39.50 bitrate=  21.4kbits/s    
frame=  401 fps=5.2 q=9.0 size=     103kB time=00:00:39.70 bitrate=  21.3kbits/s    
frame=  402 fps=5.2 q=9.0 size=     103kB time=00:00:39.80 bitrate=  21.3kbits/s    
frame=  403 fps=5.1 q=9.0 size=     103kB time=00:00:39.90 bitrate=  21.2kbits/s    
frame=  404 fps=5.1 q=9.0 size=     103kB time=00:00:40.00 bitrate=  21.2kbits/s    
frame=  405 fps=5.1 q=9.0 size=     103kB time=00:00:40.10 bitrate=  21.1kbits/s    
frame=  406 fps=5.0 q=9.0 size=     104kB time=00:00:40.20 bitrate=  21.1kbits/s    
frame=  407 fps=5.0 q=9.0 size=     104kB time=00:00:40.30 bitrate=  21.1kbits/s    
frame=  408 fps=4.9 q=9.0 size=     104kB time=00:00:40.40 bitrate=  21.0kbits/s    
frame=  409 fps=4.9 q=9.0 size=     104kB time=00:00:40.50 bitrate=  21.0kbits/s    
frame=  410 fps=4.8 q=9.0 size=     104kB time=00:00:40.60 bitrate=  21.0kbits/s    
frame=  411 fps=4.8 q=9.0 size=     104kB time=00:00:40.70 bitrate=  20.9kbits/s    
frame=  412 fps=4.7 q=9.0 size=     104kB time=00:00:40.80 bitrate=  20.9kbits/s    
frame=  413 fps=4.7 q=9.0 size=     104kB time=00:00:40.90 bitrate=  20.9kbits/s    
frame=  414 fps=4.6 q=9.0 size=     105kB time=00:00:41.00 bitrate=  20.9kbits/s    
frame=  415 fps=4.6 q=9.0 size=     105kB time=00:00:41.10 bitrate=  20.9kbits/s    
frame=  416 fps=4.6 q=9.0 size=     105kB time=00:00:41.20 bitrate=  20.8kbits/s    
frame=  417 fps=4.5 q=9.0 size=     105kB time=00:00:41.30 bitrate=  20.8kbits/s    
frame=  419 fps=4.5 q=9.0 size=     105kB time=00:00:41.50 bitrate=  20.7kbits/s    
frame=  422 fps=4.5 q=9.0 size=     105kB time=00:00:41.80 bitrate=  20.6kbits/s    
frame=  424 fps=4.5 q=9.0 size=     105kB time=00:00:42.00 bitrate=  20.6kbits/s    
frame=  426 fps=4.5 q=9.0 size=     106kB time=00:00:42.20 bitrate=  20.5kbits/s    
frame=  428 fps=4.5 q=9.0 size=     106kB time=00:00:42.40 bitrate=  20.4kbits/s    
frame=  430 fps=4.5 q=9.0 size=     106kB time=00:00:42.60 bitrate=  20.3kbits/s    
frame=  431 fps=4.5 q=9.0 size=     106kB time=00:00:42.70 bitrate=  20.3kbits/s    
frame=  433 fps=4.5 q=9.0 size=     106kB time=00:00:42.90 bitrate=  20.2kbits/s    
frame=  435 fps=4.4 q=9.0 size=     106kB time=00:00:43.10 bitrate=  20.2kbits/s    
frame=  437 fps=4.4 q=9.0 size=     106kB time=00:00:43.30 bitrate=  20.1kbits/s    
frame=  439 fps=4.4 q=9.0 size=     106kB time=00:00:43.50 bitrate=  20.0kbits/s    
frame=  441 fps=4.4 q=9.0 size=     106kB time=00:00:43.70 bitrate=  19.9kbits/s    
frame=  442 fps=4.3 q=9.0 size=     107kB time=00:00:43.80 bitrate=  19.9kbits/s    
frame=  444 fps=4.3 q=9.0 size=     107kB time=00:00:44.00 bitrate=  19.8kbits/s    
frame=  446 fps=4.2 q=9.0 size=     107kB time=00:00:44.20 bitrate=  19.8kbits/s    
frame=  448 fps=4.2 q=9.0 size=     107kB time=00:00:44.40 bitrate=  19.7kbits/s    
frame=  449 fps=4.2 q=9.0 size=     107kB time=00:00:44.50 bitrate=  19.7kbits/s    
frame=  450 fps=4.2 q=9.0 size=     107kB time=00:00:44.60 bitrate=  19.7kbits/s    
frame=  451 fps=4.1 q=9.0 size=     107kB time=00:00:44.70 bitrate=  19.7kbits/s    
frame=  452 fps=4.1 q=9.0 size=     107kB time=00:00:44.80 bitrate=  19.6kbits/s    
frame=  453 fps=4.1 q=9.0 size=     107kB time=00:00:44.90 bitrate=  19.6kbits/s    
frame=  454 fps=4.0 q=9.0 size=     107kB time=00:00:45.00 bitrate=  19.6kbits/s    
frame=  456 fps=4.0 q=9.0 size=     108kB time=00:00:45.20 bitrate=  19.5kbits/s    
frame=  458 fps=4.0 q=9.0 size=     108kB time=00:00:45.40 bitrate=  19.5kbits/s    
frame=  459 fps=4.0 q=9.0 size=     108kB time=00:00:45.50 bitrate=  19.5kbits/s    
frame=  460 fps=4.0 q=9.0 size=     108kB time=00:00:45.60 bitrate=  19.4kbits/s    
frame=  461 fps=3.9 q=9.0 size=     108kB time=00:00:45.70 bitrate=  19.4kbits/s    
frame=  462 fps=3.9 q=9.0 size=     108kB time=00:00:45.80 bitrate=  19.4kbits/s    
frame=  463 fps=3.9 q=9.0 size=     108kB time=00:00:45.90 bitrate=  19.3kbits/s    
frame=  464 fps=3.9 q=9.0 size=     108kB time=00:00:46.00 bitrate=  19.3kbits/s    
frame=  465 fps=3.8 q=9.0 size=     109kB time=00:00:46.10 bitrate=  19.3kbits/s    
frame=  466 fps=3.8 q=9.0 size=     109kB time=00:00:46.20 bitrate=  19.3kbits/s    
frame=  467 fps=3.8 q=9.0 size=     109kB time=00:00:46.30 bitrate=  19.2kbits/s    
frame=  468 fps=3.8 q=9.0 size=     109kB time=00:00:46.40 bitrate=  19.2kbits/s    
frame=  469 fps=3.7 q=9.0 size=     110kB time=00:00:46.50 bitrate=  19.4kbits/s    
frame=  470 fps=3.7 q=9.0 size=     111kB time=00:00:46.60 bitrate=  19.4kbits/s    
frame=  471 fps=3.7 q=9.0 size=     111kB time=00:00:46.70 bitrate=  19.4kbits/s    
frame=  472 fps=3.7 q=9.0 size=     111kB time=00:00:46.80 bitrate=  19.4kbits/s    
frame=  473 fps=3.6 q=9.0 size=     111kB time=00:00:46.90 bitrate=  19.4kbits/s    
frame=  474 fps=3.6 q=9.0 size=     111kB time=00:00:47.00 bitrate=  19.3kbits/s    
frame=  475 fps=3.5 q=9.0 size=     113kB time=00:00:47.10 bitrate=  19.6kbits/s    
frame=  476 fps=3.5 q=9.0 size=     113kB time=00:00:47.20 bitrate=  19.6kbits/s    
frame=  477 fps=3.4 q=9.0 size=     113kB time=00:00:47.30 bitrate=  19.5kbits/s    
frame=  478 fps=3.4 q=9.0 size=     113kB time=00:00:47.40 bitrate=  19.5kbits/s    
frame=  479 fps=3.4 q=9.0 size=     113kB time=00:00:47.50 bitrate=  19.5kbits/s    
frame=  480 fps=3.4 q=9.0 size=     113kB time=00:00:47.60 bitrate=  19.5kbits/s    
frame=  481 fps=3.3 q=9.0 size=     113kB time=00:00:47.70 bitrate=  19.5kbits/s    
frame=  482 fps=3.3 q=9.0 size=     113kB time=00:00:47.80 bitrate=  19.4kbits/s    
frame=  483 fps=3.3 q=9.0 size=     114kB time=00:00:47.90 bitrate=  19.4kbits/s    
frame=  484 fps=3.3 q=9.0 size=     114kB time=00:00:48.00 bitrate=  19.4kbits/s    
frame=  485 fps=3.2 q=9.0 size=     114kB time=00:00:48.10 bitrate=  19.4kbits/s    
frame=  486 fps=3.2 q=9.0 size=     114kB time=00:00:48.20 bitrate=  19.4kbits/s    
frame=  487 fps=3.2 q=9.0 size=     114kB time=00:00:48.30 bitrate=  19.4kbits/s    
frame=  488 fps=3.2 q=9.0 size=     114kB time=00:00:48.40 bitrate=  19.3kbits/s    
frame=  489 fps=3.2 q=9.0 size=     114kB time=00:00:48.50 bitrate=  19.3kbits/s    
frame=  490 fps=3.1 q=9.0 size=     114kB time=00:00:48.60 bitrate=  19.3kbits/s    
frame=  491 fps=3.1 q=9.0 size=     115kB time=00:00:48.70 bitrate=  19.3kbits/s    
frame=  492 fps=3.1 q=9.0 size=     115kB time=00:00:48.80 bitrate=  19.3kbits/s    
frame=  493 fps=3.1 q=9.0 size=     115kB time=00:00:48.90 bitrate=  19.2kbits/s    
frame=  494 fps=3.1 q=9.0 size=     115kB time=00:00:49.00 bitrate=  19.2kbits/s    
frame=  495 fps=3.0 q=9.0 size=     115kB time=00:00:49.10 bitrate=  19.2kbits/s    
frame=  496 fps=3.0 q=9.0 size=     115kB time=00:00:49.20 bitrate=  19.2kbits/s    
frame=  497 fps=3.0 q=9.0 size=     115kB time=00:00:49.30 bitrate=  19.2kbits/s    
frame=  498 fps=2.9 q=9.0 size=     117kB time=00:00:49.40 bitrate=  19.4kbits/s    
frame=  499 fps=2.9 q=9.0 size=     117kB time=00:00:49.50 bitrate=  19.4kbits/s    
frame=  501 fps=2.9 q=9.0 size=     117kB time=00:00:49.70 bitrate=  19.3kbits/s    
frame=  502 fps=2.9 q=9.0 size=     117kB time=00:00:49.80 bitrate=  19.3kbits/s    
frame=  503 fps=2.9 q=6.0 size=     118kB time=00:00:49.90 bitrate=  19.3kbits/s    
frame=  504 fps=2.9 q=15.0 size=     118kB time=00:00:50.00 bitrate=  19.3kbits/s    
frame=  505 fps=2.9 q=13.0 size=     157kB time=00:00:50.10 bitrate=  25.7kbits/s    
frame=  506 fps=2.9 q=12.0 size=     157kB time=00:00:50.20 bitrate=  25.7kbits/s    
frame=  507 fps=2.9 q=11.0 size=     158kB time=00:00:50.30 bitrate=  25.7kbits/s    
frame=  508 fps=2.8 q=10.0 size=     158kB time=00:00:50.40 bitrate=  25.6kbits/s    
frame=  509 fps=2.8 q=10.0 size=     158kB time=00:00:50.50 bitrate=  25.6kbits/s    
frame=  510 fps=2.8 q=9.0 size=     158kB time=00:00:50.60 bitrate=  25.6kbits/s    
frame=  511 fps=2.8 q=9.0 size=     158kB time=00:00:50.70 bitrate=  25.5kbits/s    
frame=  512 fps=2.8 q=9.0 size=     158kB time=00:00:50.80 bitrate=  25.5kbits/s    
frame=  513 fps=2.8 q=9.0 size=     158kB time=00:00:50.90 bitrate=  25.4kbits/s    
frame=  514 fps=2.8 q=9.0 size=     158kB time=00:00:51.00 bitrate=  25.4kbits/s    
frame=  515 fps=2.8 q=9.0 size=     158kB time=00:00:51.10 bitrate=  25.4kbits/s    
frame=  516 fps=2.7 q=9.0 size=     159kB time=00:00:51.20 bitrate=  25.4kbits/s    
frame=  517 fps=2.7 q=9.0 size=     159kB time=00:00:51.30 bitrate=  25.3kbits/s    
frame=  518 fps=2.7 q=9.0 size=     159kB time=00:00:51.40 bitrate=  25.3kbits/s    
frame=  519 fps=2.7 q=9.0 size=     159kB time=00:00:51.50 bitrate=  25.3kbits/s    
frame=  520 fps=2.7 q=9.0 size=     159kB time=00:00:51.60 bitrate=  25.2kbits/s    
frame=  521 fps=2.6 q=9.0 size=     159kB time=00:00:51.70 bitrate=  25.2kbits/s    
frame=  522 fps=2.6 q=9.0 size=     159kB time=00:00:51.80 bitrate=  25.2kbits/s    
frame=  523 fps=2.6 q=9.0 size=     161kB time=00:00:51.90 bitrate=  25.4kbits/s    
frame=  524 fps=2.5 q=9.0 size=     161kB time=00:00:52.00 bitrate=  25.3kbits/s    
frame=  525 fps=2.5 q=9.0 size=     161kB time=00:00:52.10 bitrate=  25.3kbits/s    
frame=  526 fps=2.5 q=9.0 size=     161kB time=00:00:52.20 bitrate=  25.3kbits/s    
frame=  527 fps=2.4 q=9.0 size=     162kB time=00:00:52.30 bitrate=  25.3kbits/s    
frame=  528 fps=2.4 q=9.0 size=     162kB time=00:00:52.40 bitrate=  25.3kbits/s    
frame=  529 fps=2.4 q=9.0 size=     162kB time=00:00:52.50 bitrate=  25.2kbits/s    
frame=  530 fps=2.4 q=9.0 size=     163kB time=00:00:52.60 bitrate=  25.4kbits/s    
frame=  531 fps=2.3 q=9.0 size=     164kB time=00:00:52.70 bitrate=  25.4kbits/s    
frame=  532 fps=2.3 q=9.0 size=     164kB time=00:00:52.80 bitrate=  25.4kbits/s    
frame=  533 fps=2.3 q=9.0 size=     164kB time=00:00:52.90 bitrate=  25.4kbits/s    
frame=  534 fps=2.3 q=9.0 size=     164kB time=00:00:53.00 bitrate=  25.3kbits/s    
frame=  535 fps=2.3 q=9.0 size=     164kB time=00:00:53.10 bitrate=  25.3kbits/s    
frame=  536 fps=2.2 q=9.0 size=     164kB time=00:00:53.20 bitrate=  25.3kbits/s    
frame=  537 fps=2.2 q=9.0 size=     164kB time=00:00:53.30 bitrate=  25.2kbits/s    
frame=  538 fps=2.2 q=9.0 size=     166kB time=00:00:53.40 bitrate=  25.4kbits/s    
frame=  539 fps=2.2 q=9.0 size=     166kB time=00:00:53.50 bitrate=  25.4kbits/s    
frame=  540 fps=2.2 q=9.0 size=     166kB time=00:00:53.60 bitrate=  25.4kbits/s    
frame=  541 fps=2.2 q=9.0 size=     168kB time=00:00:53.70 bitrate=  25.6kbits/s    
frame=  542 fps=2.2 q=9.0 size=     168kB time=00:00:53.80 bitrate=  25.6kbits/s    
frame=  543 fps=2.2 q=9.0 size=     168kB time=00:00:53.90 bitrate=  25.5kbits/s    
frame=  544 fps=2.1 q=9.0 size=     168kB time=00:00:54.00 bitrate=  25.5kbits/s    
frame=  545 fps=2.1 q=9.0 size=     168kB time=00:00:54.10 bitrate=  25.5kbits/s    
frame=  546 fps=2.1 q=9.0 size=     168kB time=00:00:54.20 bitrate=  25.4kbits/s    
frame=  547 fps=2.1 q=9.0 size=     168kB time=00:00:54.30 bitrate=  25.4kbits/s    
frame=  548 fps=2.1 q=9.0 size=     169kB time=00:00:54.40 bitrate=  25.4kbits/s    
frame=  549 fps=2.1 q=9.0 size=     169kB time=00:00:54.50 bitrate=  25.4kbits/s    
frame=  550 fps=2.1 q=9.0 size=     169kB time=00:00:54.60 bitrate=  25.3kbits/s    
frame=  551 fps=2.1 q=9.0 size=     169kB time=00:00:54.70 bitrate=  25.3kbits/s    
frame=  552 fps=2.1 q=9.0 size=     169kB time=00:00:54.80 bitrate=  25.3kbits/s    
frame=  553 fps=2.1 q=9.0 size=     169kB time=00:00:54.90 bitrate=  25.3kbits/s    
frame=  554 fps=2.0 q=9.0 size=     169kB time=00:00:55.00 bitrate=  25.2kbits/s    
frame=  555 fps=2.0 q=9.0 size=     171kB time=00:00:55.10 bitrate=  25.4kbits/s    
frame=  556 fps=2.0 q=9.0 size=     171kB time=00:00:55.20 bitrate=  25.4kbits/s    
frame=  557 fps=2.0 q=9.0 size=     171kB time=00:00:55.30 bitrate=  25.4kbits/s    
frame=  558 fps=2.0 q=9.0 size=     171kB time=00:00:55.40 bitrate=  25.3kbits/s    
frame=  559 fps=2.0 q=9.0 size=     172kB time=00:00:55.50 bitrate=  25.3kbits/s    
frame=  560 fps=2.0 q=9.0 size=     172kB time=00:00:55.60 bitrate=  25.3kbits/s    
frame=  561 fps=2.0 q=9.0 size=     172kB time=00:00:55.70 bitrate=  25.3kbits/s    
frame=  562 fps=2.0 q=9.0 size=     172kB time=00:00:55.80 bitrate=  25.2kbits/s    
frame=  563 fps=2.0 q=9.0 size=     172kB time=00:00:55.90 bitrate=  25.2kbits/s    
frame=  564 fps=2.0 q=9.0 size=     174kB time=00:00:56.00 bitrate=  25.4kbits/s    
frame=  565 fps=2.0 q=9.0 size=     174kB time=00:00:56.10 bitrate=  25.4kbits/s    
frame=  566 fps=1.9 q=9.0 size=     174kB time=00:00:56.20 bitrate=  25.3kbits/s    
frame=  567 fps=1.9 q=9.0 size=     174kB time=00:00:56.30 bitrate=  25.3kbits/s    
frame=  568 fps=1.9 q=9.0 size=     174kB time=00:00:56.40 bitrate=  25.3kbits/s    
frame=  569 fps=1.9 q=9.0 size=     174kB time=00:00:56.50 bitrate=  25.3kbits/s    
frame=  570 fps=1.9 q=9.0 size=     174kB time=00:00:56.60 bitrate=  25.2kbits/s    
frame=  571 fps=1.9 q=9.0 size=     175kB time=00:00:56.70 bitrate=  25.2kbits/s    
frame=  572 fps=1.9 q=9.0 size=     175kB time=00:00:56.80 bitrate=  25.2kbits/s    
frame=  573 fps=1.8 q=9.0 size=     175kB time=00:00:56.90 bitrate=  25.2kbits/s    
frame=  574 fps=1.8 q=9.0 size=     175kB time=00:00:57.00 bitrate=  25.1kbits/s    
frame=  575 fps=1.8 q=9.0 size=     176kB time=00:00:57.10 bitrate=  25.3kbits/s    
frame=  576 fps=1.8 q=9.0 size=     177kB time=00:00:57.20 bitrate=  25.3kbits/s    
frame=  577 fps=1.8 q=9.0 size=     177kB time=00:00:57.30 bitrate=  25.3kbits/s    
frame=  578 fps=1.8 q=9.0 size=     177kB time=00:00:57.40 bitrate=  25.2kbits/s    
frame=  580 fps=1.8 q=9.0 size=     177kB time=00:00:57.60 bitrate=  25.2kbits/s    
frame=  581 fps=1.8 q=9.0 size=     177kB time=00:00:57.70 bitrate=  25.2kbits/s    
frame=  585 fps=1.8 q=9.0 size=     178kB time=00:00:58.10 bitrate=  25.0kbits/s    
frame=  587 fps=1.8 q=9.0 size=     178kB time=00:00:58.30 bitrate=  25.0kbits/s    
frame=  588 fps=1.8 q=9.0 size=     178kB time=00:00:58.40 bitrate=  24.9kbits/s    
frame=  590 fps=1.8 q=9.0 size=     178kB time=00:00:58.60 bitrate=  24.9kbits/s    
frame=  592 fps=1.8 q=9.0 size=     178kB time=00:00:58.80 bitrate=  24.8kbits/s    
frame=  594 fps=1.8 q=9.0 size=     178kB time=00:00:59.00 bitrate=  24.7kbits/s    
frame=  597 fps=1.8 q=9.0 size=     178kB time=00:00:59.30 bitrate=  24.6kbits/s    
frame=  599 fps=1.8 q=9.0 size=     178kB time=00:00:59.50 bitrate=  24.5kbits/s    
frame=  601 fps=1.8 q=9.0 size=     178kB time=00:00:59.70 bitrate=  24.5kbits/s    
frame=  604 fps=1.8 q=9.0 size=     179kB time=00:01:00.00 bitrate=  24.4kbits/s    
frame=  608 fps=1.8 q=9.0 size=     179kB time=00:01:00.40 bitrate=  24.2kbits/s    
frame=  611 fps=1.9 q=9.0 size=     179kB time=00:01:00.70 bitrate=  24.1kbits/s    
frame=  613 fps=1.9 q=9.0 size=     179kB time=00:01:00.90 bitrate=  24.1kbits/s    
frame=  619 fps=1.9 q=9.0 size=     181kB time=00:01:01.50 bitrate=  24.1kbits/s    
frame=  619 fps=1.9 q=-1.0 Lsize=     181kB time=00:01:01.90 bitrate=  23.9kbits/s    
video:176kB audio:0kB subtitle:0kB other streams:0kB global headers:0kB muxing overhead: 2.625760%
[libx264 @ 0xc93320] frame I:3     Avg QP:10.67  size: 35395
[libx264 @ 0xc93320] frame P:616   Avg QP: 9.08  size:   120
[libx264 @ 0xc93320] mb I  I16..4: 100.0%  0.0%  0.0%
[libx264 @ 0xc93320] mb P  I16..4:  0.0%  0.0%  0.0%  P16..4:  0.1%  0.0%  0.0%  0.0%  0.0%    skip:99.9%
[libx264 @ 0xc93320] coded y,uvDC,uvAC intra: 7.5% 5.1% 4.9% inter: 0.0% 0.0% 0.0%
[libx264 @ 0xc93320] i16 v,h,dc,p: 81% 19%  0%  0%
[libx264 @ 0xc93320] i8c dc,h,v,p: 82% 14%  4%  0%
[libx264 @ 0xc93320] kb/s:23.24
Exiting normally, received signal 2.
--40003LOG 12:02:10:693341100 Trapped SIGTERM or SIGINT so shutting down ffmpeg gracefully...
--40003LOG 12:02:11:388803300 Will kill VID_TOOL_PID=742 ...
--40003LOG 12:02:13:621435700 Tried to kill -SIGTERM VID_TOOL_PID=742
--40003LOG 12:02:14:209475600 Waiting up to 6s for VID_TOOL_PID=742 to end with SIGTERM...
--40003LOG 12:02:15:785156400 wait_pid successfully managed to SIGTERM:VID_TOOL_PID=742 within less than 6s
--40003LOG 12:02:15:960943300 Will try to fix the videos...
--40003LOG 12:02:32:700596400 Fixing perms for /home/seluser/videos/vid_chrome_or_firefox_40003.mkv*
--40003LOG 12:02:49:956950300 Changing video encoding from mkv to mp4...
